[IMG]http://img63.imageshack.us/img63/1050/hddesirockers.png[/IMG]
[IMG]http://img156.imageshack.us/img156/5382/roadsignphp.png[/IMG]

[IMG]http://img339.imageshack.us/img339/9863/predators2010dc.png[/IMG]

[IMG]http://img137.imageshack.us/img137/7919/dvdbluraylogo.gif[/IMG]

[IMG]http://img209.imageshack.us/img209/3343/25ic0hd1.png[/IMG]
[b]Chosen for their ability to kill without conscience, a group of killers,
some trained and some who are not, must endeavour the alien race of predators
that have set out to target them as prey. Dropped into the vast jungle of a
distant world, these human predators must learn just who, or what, they
are up against, and that their ability, knowledge and wits are tested to
the limits in the battle of survival of kill or be killed.  
[/b]

[IMG]http://img692.imageshack.us/img692/4868/zvbzx21.png[/IMG]
[b]General
UniqueID                         : 201275340970529740439372312790383900737 (0x976C387AD3AE4C69A03A5EC9F426B841)
Complete name                    : G:\High Defination Movies\Predators 2010 BRRip 720p Hindi-Eng 5.1\Predators.mkv
Format                           : Matroska
File size                        : 2.27 GiB
Duration                         : 1h 46mn
Overall bit rate                 : 3 045 Kbps
Encoded date                     : UTC 2011-01-01 03:06:47
Writing application              : mkvmerge v4.4.0 ('Die Wiederkehr') built on Oct 31 2010 21:52:48
Writing library                  : libebml v1.0.0 + libmatroska v1.0.0
[/b]

[IMG]http://img839.imageshack.us/img839/7057/imdb3.png[/IMG]
[size=3][url]http://www.imdb.com/title/tt1424381/[/url][/size]

[IMG]http://img214.imageshack.us/img214/241/windowsmediaplayerfile.png[/IMG]
[b]Video
ID                               : 1
Format                           : AVC
Format/Info                      : Advanced Video Codec
Format profile                   : High@L4.1
Format settings, CABAC           : Yes
Format settings, ReFrames        : 8 frames
Muxing mode                      : Header stripping
Codec ID                         : V_MPEG4/ISO/AVC
Duration                         : 1h 46mn
Bit rate                         : 2 408 Kbps
Width                            : 1 280 pixels
Height                           : 544 pixels
Display aspect ratio             : 2.35:1
Frame rate                       : 23.976 fps
Color space                      : YUV
Chroma subsampling               : 4:2:0
Bit depth                        : 8 bits
Scan type                        : Progressive
Bits/(Pixel*Frame)               : 0.144
Stream size                      : 1.80 GiB (79%)

[/b]

[IMG]http://img821.imageshack.us/img821/5307/2l3ravv.png[/IMG]
[b]Audio #1
ID                               : 2
Format                           : AC-3
Format/Info                      : Audio Coding 3
Mode extension                   : CM (complete main)
Muxing mode                      : Header stripping
Codec ID                         : A_AC3
Duration                         : 1h 46mn
Bit rate mode                    : Constant
Bit rate                         : 384 Kbps
Channel(s)                       : 6 channels
Channel positions                : Front: L C R, Side: L R, LFE
Sampling rate                    : 48.0 KHz
Bit depth                        : 16 bits
Compression mode                 : Lossy
Stream size                      : 294 MiB (13%)
Title                            : VKS3385
Language                         : Hindi

Audio #2
ID                               : 3
Format                           : AC-3
Format/Info                      : Audio Coding 3
Mode extension                   : CM (complete main)
Muxing mode                      : Header stripping
Codec ID                         : A_AC3
Duration                         : 1h 46mn
Bit rate mode                    : Constant
Bit rate                         : 192 Kbps
Channel(s)                       : 6 channels
Channel positions                : Front: L C R, Side: L R, LFE
Sampling rate                    : 48.0 KHz
Bit depth                        : 16 bits
Compression mode                 : Lossy
Stream size                      : 147 MiB (6%)
Title                            : VKS3385
Language                         : English
[/b]

[IMG]http://img827.imageshack.us/img827/7996/ogtw21.gif[/IMG]
[IMG]http://leetleech.org/images/51010883727205263153.png[/IMG]
[IMG]http://leetleech.org/images/85185510123270167075.png[/IMG]
[IMG]http://leetleech.org/images/21348123206060219357.png[/IMG]
[IMG]http://leetleech.org/images/72571587326905178090.png[/IMG]
[IMG]http://leetleech.org/images/14628770412700022900.png[/IMG]


[IMG]http://img819.imageshack.us/img819/4206/slqp2p1.gif[/IMG]

[IMG]http://img843.imageshack.us/img843/5108/seedyd3.gif[/IMG]

[IMG]http://img842.imageshack.us/img842/9185/e5ab9ad248f9074c.gif[/IMG]

[IMG]http://img806.imageshack.us/img806/4074/enjoy.png[/IMG]

[IMG]http://img831.imageshack.us/img831/91/15880378.png[/IMG]



